<?xml version="1.0" encoding="UTF-8" standalone="no"?>
<!DOCTYPE svg PUBLIC "-//W3C//DTD SVG 1.1//EN"
 "http://www.w3.org/Graphics/SVG/1.1/DTD/svg11.dtd">
<!-- Generated by graphviz version 2.43.0 (0)
 -->
<!-- Title: pastafarianism Pages: 1 -->
<svg width="1629pt" height="568pt"
 viewBox="0.00 0.00 1629.38 568.00" xmlns="http://www.w3.org/2000/svg" xmlns:xlink="http://www.w3.org/1999/xlink">
<g id="graph0" class="graph" transform="scale(1 1) rotate(0) translate(4 564)">
<title>pastafarianism</title>
<polygon fill="white" stroke="transparent" points="-4,4 -4,-564 1625.38,-564 1625.38,4 -4,4"/>
<!-- MainBehaviorTree -->
<g id="node1" class="node">
<title>MainBehaviorTree</title>
<polygon fill="gold" stroke="black" points="841.44,-560 658.25,-560 611.12,-504 794.32,-504 841.44,-560"/>
<text text-anchor="middle" x="726.28" y="-534.8" font-family="Times,serif" font-size="9.00">⚡ MainBehaviorTree</text>
<text text-anchor="middle" x="726.28" y="-524.8" font-family="Times,serif" font-size="9.00">SuccessOnAll</text>
</g>
<!-- TrafficLightModule -->
<g id="node2" class="node">
<title>TrafficLightModule</title>
<polygon fill="orange" stroke="black" points="779.78,-468 672.78,-468 672.78,-432 779.78,-432 779.78,-468"/>
<text text-anchor="middle" x="726.28" y="-447.8" font-family="Times,serif" font-size="9.00">TrafficLightModule</text>
</g>
<!-- MainBehaviorTree&#45;&gt;TrafficLightModule -->
<g id="edge1" class="edge">
<title>MainBehaviorTree&#45;&gt;TrafficLightModule</title>
<path fill="none" stroke="black" d="M726.28,-503.92C726.28,-495.72 726.28,-486.72 726.28,-478.49"/>
<polygon fill="black" stroke="black" points="729.78,-478.27 726.28,-468.27 722.78,-478.27 729.78,-478.27"/>
</g>
<!-- TrafficLightUpdate -->
<g id="node3" class="node">
<title>TrafficLightUpdate</title>
<ellipse fill="gray" stroke="black" cx="649.28" cy="-378" rx="61.4" ry="18"/>
<text text-anchor="middle" x="649.28" y="-375.8" font-family="Times,serif" font-size="9.00">TrafficLightUpdate</text>
</g>
<!-- TrafficLightModule&#45;&gt;TrafficLightUpdate -->
<g id="edge2" class="edge">
<title>TrafficLightModule&#45;&gt;TrafficLightUpdate</title>
<path fill="none" stroke="black" d="M707.25,-431.7C697.43,-422.77 685.32,-411.76 674.71,-402.11"/>
<polygon fill="black" stroke="black" points="677.06,-399.52 667.3,-395.38 672.35,-404.7 677.06,-399.52"/>
</g>
<!-- CheckForTrafficLights -->
<g id="node4" class="node">
<title>CheckForTrafficLights</title>
<polygon fill="cyan" stroke="black" points="880.01,-370.54 880.01,-385.46 835.65,-396 772.91,-396 728.55,-385.46 728.55,-370.54 772.91,-360 835.65,-360 880.01,-370.54"/>
<text text-anchor="middle" x="804.28" y="-375.8" font-family="Times,serif" font-size="9.00">CheckForTrafficLights</text>
</g>
<!-- TrafficLightModule&#45;&gt;CheckForTrafficLights -->
<g id="edge3" class="edge">
<title>TrafficLightModule&#45;&gt;CheckForTrafficLights</title>
<path fill="none" stroke="black" d="M745.56,-431.7C755.2,-423.05 767.01,-412.45 777.51,-403.03"/>
<polygon fill="black" stroke="black" points="780.12,-405.39 785.22,-396.1 775.44,-400.18 780.12,-405.39"/>
</g>
<!-- TrafficLightOutOfRangeCondition -->
<g id="node5" class="node">
<title>TrafficLightOutOfRangeCondition</title>
<ellipse fill="gray" stroke="black" cx="709.28" cy="-306" rx="100.42" ry="18"/>
<text text-anchor="middle" x="709.28" y="-303.8" font-family="Times,serif" font-size="9.00">TrafficLightOutOfRangeCondition</text>
</g>
<!-- CheckForTrafficLights&#45;&gt;TrafficLightOutOfRangeCondition -->
<g id="edge4" class="edge">
<title>CheckForTrafficLights&#45;&gt;TrafficLightOutOfRangeCondition</title>
<path fill="none" stroke="black" d="M780.8,-359.7C768.54,-350.66 753.38,-339.5 740.18,-329.77"/>
<polygon fill="black" stroke="black" points="741.97,-326.74 731.84,-323.62 737.82,-332.37 741.97,-326.74"/>
</g>
<!-- TrafficLightHandling -->
<g id="node6" class="node">
<title>TrafficLightHandling</title>
<polygon fill="cyan" stroke="black" points="971.01,-298.54 971.01,-313.46 928.99,-324 869.57,-324 827.55,-313.46 827.55,-298.54 869.57,-288 928.99,-288 971.01,-298.54"/>
<text text-anchor="middle" x="899.28" y="-303.8" font-family="Times,serif" font-size="9.00">TrafficLightHandling</text>
</g>
<!-- CheckForTrafficLights&#45;&gt;TrafficLightHandling -->
<g id="edge5" class="edge">
<title>CheckForTrafficLights&#45;&gt;TrafficLightHandling</title>
<path fill="none" stroke="black" d="M827.77,-359.7C839.84,-350.8 854.74,-339.82 867.8,-330.2"/>
<polygon fill="black" stroke="black" points="870.09,-332.85 876.07,-324.1 865.94,-327.22 870.09,-332.85"/>
</g>
<!-- YellowLight -->
<g id="node7" class="node">
<title>YellowLight</title>
<polygon fill="orange" stroke="black" points="416.78,-252 345.78,-252 345.78,-216 416.78,-216 416.78,-252"/>
<text text-anchor="middle" x="381.28" y="-231.8" font-family="Times,serif" font-size="9.00">YellowLight</text>
</g>
<!-- TrafficLightHandling&#45;&gt;YellowLight -->
<g id="edge6" class="edge">
<title>TrafficLightHandling&#45;&gt;YellowLight</title>
<path fill="none" stroke="black" d="M847.55,-293.45C837.86,-291.48 827.78,-289.57 818.28,-288 676.3,-264.54 506.77,-246.92 427.02,-239.24"/>
<polygon fill="black" stroke="black" points="427.12,-235.73 416.83,-238.26 426.45,-242.7 427.12,-235.73"/>
</g>
<!-- RedLight -->
<g id="node18" class="node">
<title>RedLight</title>
<polygon fill="orange" stroke="black" points="928.78,-252 869.78,-252 869.78,-216 928.78,-216 928.78,-252"/>
<text text-anchor="middle" x="899.28" y="-231.8" font-family="Times,serif" font-size="9.00">RedLight</text>
</g>
<!-- TrafficLightHandling&#45;&gt;RedLight -->
<g id="edge17" class="edge">
<title>TrafficLightHandling&#45;&gt;RedLight</title>
<path fill="none" stroke="black" d="M899.28,-287.7C899.28,-279.98 899.28,-270.71 899.28,-262.11"/>
<polygon fill="black" stroke="black" points="902.78,-262.1 899.28,-252.1 895.78,-262.1 902.78,-262.1"/>
</g>
<!-- GreenLight -->
<g id="node29" class="node">
<title>GreenLight</title>
<polygon fill="orange" stroke="black" points="1351.28,-252 1281.28,-252 1281.28,-216 1351.28,-216 1351.28,-252"/>
<text text-anchor="middle" x="1316.28" y="-231.8" font-family="Times,serif" font-size="9.00">GreenLight</text>
</g>
<!-- TrafficLightHandling&#45;&gt;GreenLight -->
<g id="edge28" class="edge">
<title>TrafficLightHandling&#45;&gt;GreenLight</title>
<path fill="none" stroke="black" d="M957.7,-295.19C1041.73,-281.09 1194.94,-255.37 1270.98,-242.61"/>
<polygon fill="black" stroke="black" points="1271.89,-246 1281.18,-240.89 1270.74,-239.1 1271.89,-246"/>
</g>
<!-- Yellow -->
<g id="node8" class="node">
<title>Yellow</title>
<ellipse fill="gray" stroke="black" cx="48.28" cy="-162" rx="27" ry="18"/>
<text text-anchor="middle" x="48.28" y="-159.8" font-family="Times,serif" font-size="9.00">Yellow</text>
</g>
<!-- YellowLight&#45;&gt;Yellow -->
<g id="edge7" class="edge">
<title>YellowLight&#45;&gt;Yellow</title>
<path fill="none" stroke="black" d="M345.34,-229.69C288.74,-223.78 175.85,-209.22 84.28,-180 82.36,-179.39 80.4,-178.69 78.45,-177.94"/>
<polygon fill="black" stroke="black" points="79.42,-174.55 68.84,-173.85 76.67,-180.99 79.42,-174.55"/>
</g>
<!-- StopPointCalculationActionYellow -->
<g id="node9" class="node">
<title>StopPointCalculationActionYellow</title>
<ellipse fill="gray" stroke="black" cx="193.28" cy="-162" rx="99.76" ry="18"/>
<text text-anchor="middle" x="193.28" y="-159.8" font-family="Times,serif" font-size="9.00">StopPointCalculationActionYellow</text>
</g>
<!-- YellowLight&#45;&gt;StopPointCalculationActionYellow -->
<g id="edge8" class="edge">
<title>YellowLight&#45;&gt;StopPointCalculationActionYellow</title>
<path fill="none" stroke="black" d="M345.48,-219.67C316.9,-209.03 276.49,-193.98 244.49,-182.07"/>
<polygon fill="black" stroke="black" points="245.45,-178.69 234.85,-178.48 243,-185.25 245.45,-178.69"/>
</g>
<!-- YellowLightHandling -->
<g id="node10" class="node">
<title>YellowLightHandling</title>
<polygon fill="cyan" stroke="black" points="452.01,-154.54 452.01,-169.46 410.58,-180 351.98,-180 310.55,-169.46 310.55,-154.54 351.98,-144 410.58,-144 452.01,-154.54"/>
<text text-anchor="middle" x="381.28" y="-159.8" font-family="Times,serif" font-size="9.00">YellowLightHandling</text>
</g>
<!-- YellowLight&#45;&gt;YellowLightHandling -->
<g id="edge9" class="edge">
<title>YellowLight&#45;&gt;YellowLightHandling</title>
<path fill="none" stroke="black" d="M381.28,-215.7C381.28,-207.98 381.28,-198.71 381.28,-190.11"/>
<polygon fill="black" stroke="black" points="384.78,-190.1 381.28,-180.1 377.78,-190.1 384.78,-190.1"/>
</g>
<!-- PublishRVIZMarkerYellow -->
<g id="node17" class="node">
<title>PublishRVIZMarkerYellow</title>
<ellipse fill="gray" stroke="black" cx="549.28" cy="-162" rx="79.19" ry="18"/>
<text text-anchor="middle" x="549.28" y="-159.8" font-family="Times,serif" font-size="9.00">PublishRVIZMarkerYellow</text>
</g>
<!-- YellowLight&#45;&gt;PublishRVIZMarkerYellow -->
<g id="edge16" class="edge">
<title>YellowLight&#45;&gt;PublishRVIZMarkerYellow</title>
<path fill="none" stroke="black" d="M416.91,-218.15C442.24,-207.6 476.47,-193.34 503.78,-181.96"/>
<polygon fill="black" stroke="black" points="505.24,-185.14 513.13,-178.07 502.55,-178.68 505.24,-185.14"/>
</g>
<!-- ComfortStopYellow -->
<g id="node11" class="node">
<title>ComfortStopYellow</title>
<polygon fill="orange" stroke="black" points="277.28,-108 173.28,-108 173.28,-72 277.28,-72 277.28,-108"/>
<text text-anchor="middle" x="225.28" y="-87.8" font-family="Times,serif" font-size="9.00">ComfortStopYellow</text>
</g>
<!-- YellowLightHandling&#45;&gt;ComfortStopYellow -->
<g id="edge10" class="edge">
<title>YellowLightHandling&#45;&gt;ComfortStopYellow</title>
<path fill="none" stroke="black" d="M346.27,-145.29C324.46,-135.5 296.13,-122.79 272.37,-112.13"/>
<polygon fill="black" stroke="black" points="273.73,-108.9 263.18,-108 270.87,-115.29 273.73,-108.9"/>
</g>
<!-- NoStop -->
<g id="node14" class="node">
<title>NoStop</title>
<polygon fill="orange" stroke="black" points="410.28,-108 356.28,-108 356.28,-72 410.28,-72 410.28,-108"/>
<text text-anchor="middle" x="383.28" y="-87.8" font-family="Times,serif" font-size="9.00">NoStop</text>
</g>
<!-- YellowLightHandling&#45;&gt;NoStop -->
<g id="edge13" class="edge">
<title>YellowLightHandling&#45;&gt;NoStop</title>
<path fill="none" stroke="black" d="M381.78,-143.7C382,-135.98 382.26,-126.71 382.51,-118.11"/>
<polygon fill="black" stroke="black" points="386.01,-118.2 382.79,-108.1 379.01,-118 386.01,-118.2"/>
</g>
<!-- StopPointAheadYellow -->
<g id="node12" class="node">
<title>StopPointAheadYellow</title>
<ellipse fill="gray" stroke="black" cx="69.28" cy="-18" rx="69.06" ry="18"/>
<text text-anchor="middle" x="69.28" y="-15.8" font-family="Times,serif" font-size="9.00">StopPointAheadYellow</text>
</g>
<!-- ComfortStopYellow&#45;&gt;StopPointAheadYellow -->
<g id="edge11" class="edge">
<title>ComfortStopYellow&#45;&gt;StopPointAheadYellow</title>
<path fill="none" stroke="black" d="M187.12,-71.88C164.37,-61.67 135.43,-48.68 111.93,-38.14"/>
<polygon fill="black" stroke="black" points="113.11,-34.83 102.55,-33.93 110.24,-41.22 113.11,-34.83"/>
</g>
<!-- ComfortBrakingYellow -->
<g id="node13" class="node">
<title>ComfortBrakingYellow</title>
<ellipse fill="gray" stroke="black" cx="225.28" cy="-18" rx="68.91" ry="18"/>
<text text-anchor="middle" x="225.28" y="-15.8" font-family="Times,serif" font-size="9.00">ComfortBrakingYellow</text>
</g>
<!-- ComfortStopYellow&#45;&gt;ComfortBrakingYellow -->
<g id="edge12" class="edge">
<title>ComfortStopYellow&#45;&gt;ComfortBrakingYellow</title>
<path fill="none" stroke="black" d="M225.28,-71.7C225.28,-63.98 225.28,-54.71 225.28,-46.11"/>
<polygon fill="black" stroke="black" points="228.78,-46.1 225.28,-36.1 221.78,-46.1 228.78,-46.1"/>
</g>
<!-- StopPointBehindYellow -->
<g id="node15" class="node">
<title>StopPointBehindYellow</title>
<ellipse fill="gray" stroke="black" cx="383.28" cy="-18" rx="71.68" ry="18"/>
<text text-anchor="middle" x="383.28" y="-15.8" font-family="Times,serif" font-size="9.00">StopPointBehindYellow</text>
</g>
<!-- NoStop&#45;&gt;StopPointBehindYellow -->
<g id="edge14" class="edge">
<title>NoStop&#45;&gt;StopPointBehindYellow</title>
<path fill="none" stroke="black" d="M383.28,-71.7C383.28,-63.98 383.28,-54.71 383.28,-46.11"/>
<polygon fill="black" stroke="black" points="386.78,-46.1 383.28,-36.1 379.78,-46.1 386.78,-46.1"/>
</g>
<!-- ContinueDrivingYellow -->
<g id="node16" class="node">
<title>ContinueDrivingYellow</title>
<ellipse fill="gray" stroke="black" cx="544.28" cy="-18" rx="71.03" ry="18"/>
<text text-anchor="middle" x="544.28" y="-15.8" font-family="Times,serif" font-size="9.00">ContinueDrivingYellow</text>
</g>
<!-- NoStop&#45;&gt;ContinueDrivingYellow -->
<g id="edge15" class="edge">
<title>NoStop&#45;&gt;ContinueDrivingYellow</title>
<path fill="none" stroke="black" d="M410.59,-77.13C435.26,-66.4 471.98,-50.44 500.7,-37.95"/>
<polygon fill="black" stroke="black" points="502.33,-41.06 510.1,-33.86 499.54,-34.64 502.33,-41.06"/>
</g>
<!-- Red -->
<g id="node19" class="node">
<title>Red</title>
<ellipse fill="gray" stroke="black" cx="673.28" cy="-162" rx="27" ry="18"/>
<text text-anchor="middle" x="673.28" y="-159.8" font-family="Times,serif" font-size="9.00">Red</text>
</g>
<!-- RedLight&#45;&gt;Red -->
<g id="edge18" class="edge">
<title>RedLight&#45;&gt;Red</title>
<path fill="none" stroke="black" d="M869.5,-226.34C831.66,-217.52 764.64,-200.62 709.28,-180 707.44,-179.31 705.55,-178.57 703.67,-177.79"/>
<polygon fill="black" stroke="black" points="704.91,-174.51 694.35,-173.67 702.08,-180.91 704.91,-174.51"/>
</g>
<!-- StopPointCalculationActionRed -->
<g id="node20" class="node">
<title>StopPointCalculationActionRed</title>
<ellipse fill="gray" stroke="black" cx="812.28" cy="-162" rx="93.56" ry="18"/>
<text text-anchor="middle" x="812.28" y="-159.8" font-family="Times,serif" font-size="9.00">StopPointCalculationActionRed</text>
</g>
<!-- RedLight&#45;&gt;StopPointCalculationActionRed -->
<g id="edge19" class="edge">
<title>RedLight&#45;&gt;StopPointCalculationActionRed</title>
<path fill="none" stroke="black" d="M877.78,-215.7C866.66,-206.75 852.93,-195.71 840.93,-186.05"/>
<polygon fill="black" stroke="black" points="842.93,-183.16 832.94,-179.62 838.54,-188.62 842.93,-183.16"/>
</g>
<!-- RedLightHandling -->
<g id="node21" class="node">
<title>RedLightHandling</title>
<polygon fill="cyan" stroke="black" points="1051.27,-154.54 1051.27,-169.46 1013.79,-180 960.78,-180 923.3,-169.46 923.3,-154.54 960.78,-144 1013.79,-144 1051.27,-154.54"/>
<text text-anchor="middle" x="987.28" y="-159.8" font-family="Times,serif" font-size="9.00">RedLightHandling</text>
</g>
<!-- RedLight&#45;&gt;RedLightHandling -->
<g id="edge20" class="edge">
<title>RedLight&#45;&gt;RedLightHandling</title>
<path fill="none" stroke="black" d="M921.03,-215.7C932.12,-206.88 945.76,-196.03 957.77,-186.47"/>
<polygon fill="black" stroke="black" points="960.13,-189.07 965.78,-180.1 955.77,-183.59 960.13,-189.07"/>
</g>
<!-- PublishRVIZMarkerRed -->
<g id="node28" class="node">
<title>PublishRVIZMarkerRed</title>
<ellipse fill="gray" stroke="black" cx="1141.28" cy="-162" rx="72.99" ry="18"/>
<text text-anchor="middle" x="1141.28" y="-159.8" font-family="Times,serif" font-size="9.00">PublishRVIZMarkerRed</text>
</g>
<!-- RedLight&#45;&gt;PublishRVIZMarkerRed -->
<g id="edge27" class="edge">
<title>RedLight&#45;&gt;PublishRVIZMarkerRed</title>
<path fill="none" stroke="black" d="M928.96,-224.42C967.92,-213.15 1037.1,-193.14 1085.88,-179.03"/>
<polygon fill="black" stroke="black" points="1087.02,-182.34 1095.66,-176.2 1085.08,-175.61 1087.02,-182.34"/>
</g>
<!-- ComfortStopRed -->
<g id="node22" class="node">
<title>ComfortStopRed</title>
<polygon fill="orange" stroke="black" points="960.28,-108 868.28,-108 868.28,-72 960.28,-72 960.28,-108"/>
<text text-anchor="middle" x="914.28" y="-87.8" font-family="Times,serif" font-size="9.00">ComfortStopRed</text>
</g>
<!-- RedLightHandling&#45;&gt;ComfortStopRed -->
<g id="edge21" class="edge">
<title>RedLightHandling&#45;&gt;ComfortStopRed</title>
<path fill="none" stroke="black" d="M969.24,-143.7C960.22,-135.05 949.16,-124.45 939.34,-115.03"/>
<polygon fill="black" stroke="black" points="941.76,-112.5 932.12,-108.1 936.91,-117.55 941.76,-112.5"/>
</g>
<!-- EmergencyStop -->
<g id="node25" class="node">
<title>EmergencyStop</title>
<polygon fill="orange" stroke="black" points="1105.28,-108 1015.28,-108 1015.28,-72 1105.28,-72 1105.28,-108"/>
<text text-anchor="middle" x="1060.28" y="-87.8" font-family="Times,serif" font-size="9.00">EmergencyStop</text>
</g>
<!-- RedLightHandling&#45;&gt;EmergencyStop -->
<g id="edge24" class="edge">
<title>RedLightHandling&#45;&gt;EmergencyStop</title>
<path fill="none" stroke="black" d="M1005.33,-143.7C1014.34,-135.05 1025.4,-124.45 1035.23,-115.03"/>
<polygon fill="black" stroke="black" points="1037.65,-117.55 1042.44,-108.1 1032.8,-112.5 1037.65,-117.55"/>
</g>
<!-- StopPointAheadRed -->
<g id="node23" class="node">
<title>StopPointAheadRed</title>
<ellipse fill="gray" stroke="black" cx="771.28" cy="-18" rx="62.86" ry="18"/>
<text text-anchor="middle" x="771.28" y="-15.8" font-family="Times,serif" font-size="9.00">StopPointAheadRed</text>
</g>
<!-- ComfortStopRed&#45;&gt;StopPointAheadRed -->
<g id="edge22" class="edge">
<title>ComfortStopRed&#45;&gt;StopPointAheadRed</title>
<path fill="none" stroke="black" d="M879.3,-71.88C858.56,-61.72 832.21,-48.82 810.73,-38.31"/>
<polygon fill="black" stroke="black" points="812.06,-35.07 801.54,-33.81 808.99,-41.35 812.06,-35.07"/>
</g>
<!-- ComfortBrakingRed -->
<g id="node24" class="node">
<title>ComfortBrakingRed</title>
<ellipse fill="gray" stroke="black" cx="914.28" cy="-18" rx="62.21" ry="18"/>
<text text-anchor="middle" x="914.28" y="-15.8" font-family="Times,serif" font-size="9.00">ComfortBrakingRed</text>
</g>
<!-- ComfortStopRed&#45;&gt;ComfortBrakingRed -->
<g id="edge23" class="edge">
<title>ComfortStopRed&#45;&gt;ComfortBrakingRed</title>
<path fill="none" stroke="black" d="M914.28,-71.7C914.28,-63.98 914.28,-54.71 914.28,-46.11"/>
<polygon fill="black" stroke="black" points="917.78,-46.1 914.28,-36.1 910.78,-46.1 917.78,-46.1"/>
</g>
<!-- StopPointBehindRed -->
<g id="node26" class="node">
<title>StopPointBehindRed</title>
<ellipse fill="gray" stroke="black" cx="1060.28" cy="-18" rx="65.48" ry="18"/>
<text text-anchor="middle" x="1060.28" y="-15.8" font-family="Times,serif" font-size="9.00">StopPointBehindRed</text>
</g>
<!-- EmergencyStop&#45;&gt;StopPointBehindRed -->
<g id="edge25" class="edge">
<title>EmergencyStop&#45;&gt;StopPointBehindRed</title>
<path fill="none" stroke="black" d="M1060.28,-71.7C1060.28,-63.98 1060.28,-54.71 1060.28,-46.11"/>
<polygon fill="black" stroke="black" points="1063.78,-46.1 1060.28,-36.1 1056.78,-46.1 1063.78,-46.1"/>
</g>
<!-- EmergencyBraking -->
<g id="node27" class="node">
<title>EmergencyBraking</title>
<ellipse fill="gray" stroke="black" cx="1204.28" cy="-18" rx="61.4" ry="18"/>
<text text-anchor="middle" x="1204.28" y="-15.8" font-family="Times,serif" font-size="9.00">EmergencyBraking</text>
</g>
<!-- EmergencyStop&#45;&gt;EmergencyBraking -->
<g id="edge26" class="edge">
<title>EmergencyStop&#45;&gt;EmergencyBraking</title>
<path fill="none" stroke="black" d="M1095.51,-71.88C1116.4,-61.72 1142.93,-48.82 1164.56,-38.31"/>
<polygon fill="black" stroke="black" points="1166.35,-41.33 1173.81,-33.81 1163.29,-35.04 1166.35,-41.33"/>
</g>
<!-- Green -->
<g id="node30" class="node">
<title>Green</title>
<ellipse fill="gray" stroke="black" cx="1259.28" cy="-162" rx="27" ry="18"/>
<text text-anchor="middle" x="1259.28" y="-159.8" font-family="Times,serif" font-size="9.00">Green</text>
</g>
<!-- GreenLight&#45;&gt;Green -->
<g id="edge29" class="edge">
<title>GreenLight&#45;&gt;Green</title>
<path fill="none" stroke="black" d="M1302.19,-215.7C1294.95,-206.8 1286.02,-195.84 1278.19,-186.22"/>
<polygon fill="black" stroke="black" points="1280.69,-183.75 1271.66,-178.2 1275.26,-188.17 1280.69,-183.75"/>
</g>
<!-- ContinueDrivingGreen -->
<g id="node31" class="node">
<title>ContinueDrivingGreen</title>
<ellipse fill="gray" stroke="black" cx="1374.28" cy="-162" rx="70.37" ry="18"/>
<text text-anchor="middle" x="1374.28" y="-159.8" font-family="Times,serif" font-size="9.00">ContinueDrivingGreen</text>
</g>
<!-- GreenLight&#45;&gt;ContinueDrivingGreen -->
<g id="edge30" class="edge">
<title>GreenLight&#45;&gt;ContinueDrivingGreen</title>
<path fill="none" stroke="black" d="M1330.62,-215.7C1337.57,-207.3 1346.05,-197.07 1353.68,-187.86"/>
<polygon fill="black" stroke="black" points="1356.42,-190.04 1360.11,-180.1 1351.03,-185.57 1356.42,-190.04"/>
</g>
<!-- PublishRVIZMarkerGreen -->
<g id="node32" class="node">
<title>PublishRVIZMarkerGreen</title>
<ellipse fill="gray" stroke="black" cx="1542.28" cy="-162" rx="79.19" ry="18"/>
<text text-anchor="middle" x="1542.28" y="-159.8" font-family="Times,serif" font-size="9.00">PublishRVIZMarkerGreen</text>
</g>
<!-- GreenLight&#45;&gt;PublishRVIZMarkerGreen -->
<g id="edge31" class="edge">
<title>GreenLight&#45;&gt;PublishRVIZMarkerGreen</title>
<path fill="none" stroke="black" d="M1351.59,-222.06C1388.1,-210.75 1445.59,-192.95 1487.9,-179.84"/>
<polygon fill="black" stroke="black" points="1488.98,-183.17 1497.5,-176.87 1486.91,-176.49 1488.98,-183.17"/>
</g>
</g>
</svg>
