<?xml version="1.0" encoding="UTF-8" standalone="no"?>
<!DOCTYPE svg PUBLIC "-//W3C//DTD SVG 1.1//EN"
 "http://www.w3.org/Graphics/SVG/1.1/DTD/svg11.dtd">
<!-- Generated by graphviz version 2.43.0 (0)
 -->
<!-- Title: pastafarianism Pages: 1 -->
<svg width="1422pt" height="640pt"
 viewBox="0.00 0.00 1422.10 640.00" xmlns="http://www.w3.org/2000/svg" xmlns:xlink="http://www.w3.org/1999/xlink">
<g id="graph0" class="graph" transform="scale(1 1) rotate(0) translate(4 636)">
<title>pastafarianism</title>
<polygon fill="white" stroke="transparent" points="-4,4 -4,-636 1418.1,-636 1418.1,4 -4,4"/>
<!-- MainBehaviorTree -->
<g id="node1" class="node">
<title>MainBehaviorTree</title>
<polygon fill="gold" stroke="black" points="807.16,-632 623.97,-632 576.84,-576 760.03,-576 807.16,-632"/>
<text text-anchor="middle" x="692" y="-606.8" font-family="Times,serif" font-size="9.00">⚡ MainBehaviorTree</text>
<text text-anchor="middle" x="692" y="-596.8" font-family="Times,serif" font-size="9.00">SuccessOnAll</text>
</g>
<!-- TrafficLightModule -->
<g id="node2" class="node">
<title>TrafficLightModule</title>
<polygon fill="orange" stroke="black" points="660.5,-540 553.5,-540 553.5,-504 660.5,-504 660.5,-540"/>
<text text-anchor="middle" x="607" y="-519.8" font-family="Times,serif" font-size="9.00">TrafficLightModule</text>
</g>
<!-- MainBehaviorTree&#45;&gt;TrafficLightModule -->
<g id="edge1" class="edge">
<title>MainBehaviorTree&#45;&gt;TrafficLightModule</title>
<path fill="none" stroke="black" d="M663.22,-575.92C653.27,-566.54 642.18,-556.11 632.51,-547.01"/>
<polygon fill="black" stroke="black" points="634.78,-544.34 625.1,-540.03 629.98,-549.44 634.78,-544.34"/>
</g>
<!-- LateralClearanceVelocityAdjuster -->
<g id="node29" class="node">
<title>LateralClearanceVelocityAdjuster</title>
<ellipse fill="gray" stroke="black" cx="778" cy="-522" rx="99.76" ry="18"/>
<text text-anchor="middle" x="778" y="-519.8" font-family="Times,serif" font-size="9.00">LateralClearanceVelocityAdjuster</text>
</g>
<!-- MainBehaviorTree&#45;&gt;LateralClearanceVelocityAdjuster -->
<g id="edge28" class="edge">
<title>MainBehaviorTree&#45;&gt;LateralClearanceVelocityAdjuster</title>
<path fill="none" stroke="black" d="M721.12,-575.92C731.27,-566.47 742.57,-555.95 752.42,-546.8"/>
<polygon fill="black" stroke="black" points="755.01,-549.17 759.95,-539.79 750.24,-544.04 755.01,-549.17"/>
</g>
<!-- TrafficLightUpdate -->
<g id="node3" class="node">
<title>TrafficLightUpdate</title>
<ellipse fill="gray" stroke="black" cx="530" cy="-450" rx="61.4" ry="18"/>
<text text-anchor="middle" x="530" y="-447.8" font-family="Times,serif" font-size="9.00">TrafficLightUpdate</text>
</g>
<!-- TrafficLightModule&#45;&gt;TrafficLightUpdate -->
<g id="edge2" class="edge">
<title>TrafficLightModule&#45;&gt;TrafficLightUpdate</title>
<path fill="none" stroke="black" d="M587.97,-503.7C578.15,-494.77 566.04,-483.76 555.43,-474.11"/>
<polygon fill="black" stroke="black" points="557.77,-471.52 548.02,-467.38 553.07,-476.7 557.77,-471.52"/>
</g>
<!-- CheckForTrafficLights -->
<g id="node4" class="node">
<title>CheckForTrafficLights</title>
<polygon fill="cyan" stroke="black" points="760.73,-442.54 760.73,-457.46 716.37,-468 653.63,-468 609.27,-457.46 609.27,-442.54 653.63,-432 716.37,-432 760.73,-442.54"/>
<text text-anchor="middle" x="685" y="-447.8" font-family="Times,serif" font-size="9.00">CheckForTrafficLights</text>
</g>
<!-- TrafficLightModule&#45;&gt;CheckForTrafficLights -->
<g id="edge3" class="edge">
<title>TrafficLightModule&#45;&gt;CheckForTrafficLights</title>
<path fill="none" stroke="black" d="M626.28,-503.7C635.92,-495.05 647.73,-484.45 658.23,-475.03"/>
<polygon fill="black" stroke="black" points="660.84,-477.39 665.94,-468.1 656.16,-472.18 660.84,-477.39"/>
</g>
<!-- TrafficLightOutOfRangeCondition -->
<g id="node5" class="node">
<title>TrafficLightOutOfRangeCondition</title>
<ellipse fill="gray" stroke="black" cx="509" cy="-378" rx="100.42" ry="18"/>
<text text-anchor="middle" x="509" y="-375.8" font-family="Times,serif" font-size="9.00">TrafficLightOutOfRangeCondition</text>
</g>
<!-- CheckForTrafficLights&#45;&gt;TrafficLightOutOfRangeCondition -->
<g id="edge4" class="edge">
<title>CheckForTrafficLights&#45;&gt;TrafficLightOutOfRangeCondition</title>
<path fill="none" stroke="black" d="M646.38,-433.64C620.4,-423.31 585.93,-409.6 558.02,-398.5"/>
<polygon fill="black" stroke="black" points="559.03,-395.13 548.45,-394.69 556.45,-401.64 559.03,-395.13"/>
</g>
<!-- TrafficLightHandling -->
<g id="node6" class="node">
<title>TrafficLightHandling</title>
<polygon fill="orange" stroke="black" points="742.5,-396 627.5,-396 627.5,-360 742.5,-360 742.5,-396"/>
<text text-anchor="middle" x="685" y="-375.8" font-family="Times,serif" font-size="9.00">TrafficLightHandling</text>
</g>
<!-- CheckForTrafficLights&#45;&gt;TrafficLightHandling -->
<g id="edge5" class="edge">
<title>CheckForTrafficLights&#45;&gt;TrafficLightHandling</title>
<path fill="none" stroke="black" d="M685,-431.7C685,-423.98 685,-414.71 685,-406.11"/>
<polygon fill="black" stroke="black" points="688.5,-406.1 685,-396.1 681.5,-406.1 688.5,-406.1"/>
</g>
<!-- ErrorHandlingAction -->
<g id="node28" class="node">
<title>ErrorHandlingAction</title>
<ellipse fill="gray" stroke="black" cx="827" cy="-378" rx="66.29" ry="18"/>
<text text-anchor="middle" x="827" y="-375.8" font-family="Times,serif" font-size="9.00">ErrorHandlingAction</text>
</g>
<!-- CheckForTrafficLights&#45;&gt;ErrorHandlingAction -->
<g id="edge27" class="edge">
<title>CheckForTrafficLights&#45;&gt;ErrorHandlingAction</title>
<path fill="none" stroke="black" d="M718.65,-432.41C739.23,-422.27 765.65,-409.24 787.25,-398.59"/>
<polygon fill="black" stroke="black" points="789.07,-401.6 796.49,-394.04 785.98,-395.32 789.07,-401.6"/>
</g>
<!-- StopPositionCalculationAction -->
<g id="node7" class="node">
<title>StopPositionCalculationAction</title>
<ellipse fill="gray" stroke="black" cx="590" cy="-306" rx="90.79" ry="18"/>
<text text-anchor="middle" x="590" y="-303.8" font-family="Times,serif" font-size="9.00">StopPositionCalculationAction</text>
</g>
<!-- TrafficLightHandling&#45;&gt;StopPositionCalculationAction -->
<g id="edge6" class="edge">
<title>TrafficLightHandling&#45;&gt;StopPositionCalculationAction</title>
<path fill="none" stroke="black" d="M661.52,-359.7C649.26,-350.66 634.1,-339.5 620.9,-329.77"/>
<polygon fill="black" stroke="black" points="622.69,-326.74 612.56,-323.62 618.53,-332.37 622.69,-326.74"/>
</g>
<!-- HandleTrafficLightCycle -->
<g id="node8" class="node">
<title>HandleTrafficLightCycle</title>
<polygon fill="cyan" stroke="black" points="862.73,-298.54 862.73,-313.46 814.85,-324 747.15,-324 699.27,-313.46 699.27,-298.54 747.15,-288 814.85,-288 862.73,-298.54"/>
<text text-anchor="middle" x="781" y="-303.8" font-family="Times,serif" font-size="9.00">HandleTrafficLightCycle</text>
</g>
<!-- TrafficLightHandling&#45;&gt;HandleTrafficLightCycle -->
<g id="edge7" class="edge">
<title>TrafficLightHandling&#45;&gt;HandleTrafficLightCycle</title>
<path fill="none" stroke="black" d="M708.73,-359.7C720.94,-350.8 735.99,-339.82 749.18,-330.2"/>
<polygon fill="black" stroke="black" points="751.52,-332.82 757.54,-324.1 747.4,-327.17 751.52,-332.82"/>
</g>
<!-- YellowLight -->
<g id="node9" class="node">
<title>YellowLight</title>
<polygon fill="orange" stroke="black" points="417.5,-252 346.5,-252 346.5,-216 417.5,-216 417.5,-252"/>
<text text-anchor="middle" x="382" y="-231.8" font-family="Times,serif" font-size="9.00">YellowLight</text>
</g>
<!-- HandleTrafficLightCycle&#45;&gt;YellowLight -->
<g id="edge8" class="edge">
<title>HandleTrafficLightCycle&#45;&gt;YellowLight</title>
<path fill="none" stroke="black" d="M720.81,-293.63C710.54,-291.73 699.97,-289.79 690,-288 596.86,-271.29 487.67,-252.75 427.53,-242.63"/>
<polygon fill="black" stroke="black" points="428.04,-239.16 417.6,-240.96 426.88,-246.07 428.04,-239.16"/>
</g>
<!-- RedLight -->
<g id="node20" class="node">
<title>RedLight</title>
<polygon fill="orange" stroke="black" points="810.5,-252 751.5,-252 751.5,-216 810.5,-216 810.5,-252"/>
<text text-anchor="middle" x="781" y="-231.8" font-family="Times,serif" font-size="9.00">RedLight</text>
</g>
<!-- HandleTrafficLightCycle&#45;&gt;RedLight -->
<g id="edge19" class="edge">
<title>HandleTrafficLightCycle&#45;&gt;RedLight</title>
<path fill="none" stroke="black" d="M781,-287.7C781,-279.98 781,-270.71 781,-262.11"/>
<polygon fill="black" stroke="black" points="784.5,-262.1 781,-252.1 777.5,-262.1 784.5,-262.1"/>
</g>
<!-- GreenLight -->
<g id="node24" class="node">
<title>GreenLight</title>
<polygon fill="orange" stroke="black" points="1144,-252 1074,-252 1074,-216 1144,-216 1144,-252"/>
<text text-anchor="middle" x="1109" y="-231.8" font-family="Times,serif" font-size="9.00">GreenLight</text>
</g>
<!-- HandleTrafficLightCycle&#45;&gt;GreenLight -->
<g id="edge23" class="edge">
<title>HandleTrafficLightCycle&#45;&gt;GreenLight</title>
<path fill="none" stroke="black" d="M837.76,-292.89C901.76,-279.23 1004.56,-257.29 1063.51,-244.71"/>
<polygon fill="black" stroke="black" points="1064.59,-248.06 1073.64,-242.55 1063.13,-241.21 1064.59,-248.06"/>
</g>
<!-- Yellow -->
<g id="node10" class="node">
<title>Yellow</title>
<ellipse fill="gray" stroke="black" cx="27" cy="-162" rx="27" ry="18"/>
<text text-anchor="middle" x="27" y="-159.8" font-family="Times,serif" font-size="9.00">Yellow</text>
</g>
<!-- YellowLight&#45;&gt;Yellow -->
<g id="edge9" class="edge">
<title>YellowLight&#45;&gt;Yellow</title>
<path fill="none" stroke="black" d="M346.33,-230.31C286.57,-225.09 162.94,-211.23 63,-180 61.07,-179.4 59.11,-178.71 57.16,-177.97"/>
<polygon fill="black" stroke="black" points="58.12,-174.57 47.55,-173.89 55.39,-181.02 58.12,-174.57"/>
</g>
<!-- DecisionPointCalculationActionYellow -->
<g id="node11" class="node">
<title>DecisionPointCalculationActionYellow</title>
<ellipse fill="gray" stroke="black" cx="183" cy="-162" rx="110.7" ry="18"/>
<text text-anchor="middle" x="183" y="-159.8" font-family="Times,serif" font-size="9.00">DecisionPointCalculationActionYellow</text>
</g>
<!-- YellowLight&#45;&gt;DecisionPointCalculationActionYellow -->
<g id="edge10" class="edge">
<title>YellowLight&#45;&gt;DecisionPointCalculationActionYellow</title>
<path fill="none" stroke="black" d="M346.42,-220.49C315.97,-209.77 271.67,-194.19 236.87,-181.95"/>
<polygon fill="black" stroke="black" points="237.92,-178.61 227.32,-178.59 235.59,-185.21 237.92,-178.61"/>
</g>
<!-- YellowLightHandling -->
<g id="node12" class="node">
<title>YellowLightHandling</title>
<polygon fill="cyan" stroke="black" points="452.73,-154.54 452.73,-169.46 411.3,-180 352.7,-180 311.27,-169.46 311.27,-154.54 352.7,-144 411.3,-144 452.73,-154.54"/>
<text text-anchor="middle" x="382" y="-159.8" font-family="Times,serif" font-size="9.00">YellowLightHandling</text>
</g>
<!-- YellowLight&#45;&gt;YellowLightHandling -->
<g id="edge11" class="edge">
<title>YellowLight&#45;&gt;YellowLightHandling</title>
<path fill="none" stroke="black" d="M382,-215.7C382,-207.98 382,-198.71 382,-190.11"/>
<polygon fill="black" stroke="black" points="385.5,-190.1 382,-180.1 378.5,-190.1 385.5,-190.1"/>
</g>
<!-- PublishRVIZMarkerYellow -->
<g id="node19" class="node">
<title>PublishRVIZMarkerYellow</title>
<ellipse fill="gray" stroke="black" cx="550" cy="-162" rx="79.19" ry="18"/>
<text text-anchor="middle" x="550" y="-159.8" font-family="Times,serif" font-size="9.00">PublishRVIZMarkerYellow</text>
</g>
<!-- YellowLight&#45;&gt;PublishRVIZMarkerYellow -->
<g id="edge18" class="edge">
<title>YellowLight&#45;&gt;PublishRVIZMarkerYellow</title>
<path fill="none" stroke="black" d="M417.63,-218.15C442.96,-207.6 477.19,-193.34 504.5,-181.96"/>
<polygon fill="black" stroke="black" points="505.96,-185.14 513.84,-178.07 503.27,-178.68 505.96,-185.14"/>
</g>
<!-- ComfortStopYellow -->
<g id="node13" class="node">
<title>ComfortStopYellow</title>
<polygon fill="orange" stroke="black" points="349,-108 245,-108 245,-72 349,-72 349,-108"/>
<text text-anchor="middle" x="297" y="-87.8" font-family="Times,serif" font-size="9.00">ComfortStopYellow</text>
</g>
<!-- YellowLightHandling&#45;&gt;ComfortStopYellow -->
<g id="edge12" class="edge">
<title>YellowLightHandling&#45;&gt;ComfortStopYellow</title>
<path fill="none" stroke="black" d="M360.99,-143.7C350.28,-134.88 337.11,-124.03 325.5,-114.47"/>
<polygon fill="black" stroke="black" points="327.71,-111.76 317.77,-108.1 323.26,-117.16 327.71,-111.76"/>
</g>
<!-- NoStop -->
<g id="node16" class="node">
<title>NoStop</title>
<polygon fill="orange" stroke="black" points="493,-108 439,-108 439,-72 493,-72 493,-108"/>
<text text-anchor="middle" x="466" y="-87.8" font-family="Times,serif" font-size="9.00">NoStop</text>
</g>
<!-- YellowLightHandling&#45;&gt;NoStop -->
<g id="edge15" class="edge">
<title>YellowLightHandling&#45;&gt;NoStop</title>
<path fill="none" stroke="black" d="M402.76,-143.7C413.24,-134.97 426.11,-124.24 437.5,-114.75"/>
<polygon fill="black" stroke="black" points="440.03,-117.19 445.47,-108.1 435.55,-111.82 440.03,-117.19"/>
</g>
<!-- DecisionPointAheadYellow -->
<g id="node14" class="node">
<title>DecisionPointAheadYellow</title>
<ellipse fill="gray" stroke="black" cx="130" cy="-18" rx="80" ry="18"/>
<text text-anchor="middle" x="130" y="-15.8" font-family="Times,serif" font-size="9.00">DecisionPointAheadYellow</text>
</g>
<!-- ComfortStopYellow&#45;&gt;DecisionPointAheadYellow -->
<g id="edge13" class="edge">
<title>ComfortStopYellow&#45;&gt;DecisionPointAheadYellow</title>
<path fill="none" stroke="black" d="M256.15,-71.88C231.74,-61.65 200.7,-48.63 175.51,-38.08"/>
<polygon fill="black" stroke="black" points="176.75,-34.8 166.17,-34.16 174.04,-41.26 176.75,-34.8"/>
</g>
<!-- ComfortBrakingYellow -->
<g id="node15" class="node">
<title>ComfortBrakingYellow</title>
<ellipse fill="gray" stroke="black" cx="297" cy="-18" rx="68.91" ry="18"/>
<text text-anchor="middle" x="297" y="-15.8" font-family="Times,serif" font-size="9.00">ComfortBrakingYellow</text>
</g>
<!-- ComfortStopYellow&#45;&gt;ComfortBrakingYellow -->
<g id="edge14" class="edge">
<title>ComfortStopYellow&#45;&gt;ComfortBrakingYellow</title>
<path fill="none" stroke="black" d="M297,-71.7C297,-63.98 297,-54.71 297,-46.11"/>
<polygon fill="black" stroke="black" points="300.5,-46.1 297,-36.1 293.5,-46.1 300.5,-46.1"/>
</g>
<!-- DecisionPointBehindYellow -->
<g id="node17" class="node">
<title>DecisionPointBehindYellow</title>
<ellipse fill="gray" stroke="black" cx="466" cy="-18" rx="82.62" ry="18"/>
<text text-anchor="middle" x="466" y="-15.8" font-family="Times,serif" font-size="9.00">DecisionPointBehindYellow</text>
</g>
<!-- NoStop&#45;&gt;DecisionPointBehindYellow -->
<g id="edge16" class="edge">
<title>NoStop&#45;&gt;DecisionPointBehindYellow</title>
<path fill="none" stroke="black" d="M466,-71.7C466,-63.98 466,-54.71 466,-46.11"/>
<polygon fill="black" stroke="black" points="469.5,-46.1 466,-36.1 462.5,-46.1 469.5,-46.1"/>
</g>
<!-- ContinueDrivingYellow -->
<g id="node18" class="node">
<title>ContinueDrivingYellow</title>
<ellipse fill="gray" stroke="black" cx="638" cy="-18" rx="71.03" ry="18"/>
<text text-anchor="middle" x="638" y="-15.8" font-family="Times,serif" font-size="9.00">ContinueDrivingYellow</text>
</g>
<!-- NoStop&#45;&gt;ContinueDrivingYellow -->
<g id="edge17" class="edge">
<title>NoStop&#45;&gt;ContinueDrivingYellow</title>
<path fill="none" stroke="black" d="M493.25,-77.91C519.95,-67.04 561.12,-50.29 592.73,-37.42"/>
<polygon fill="black" stroke="black" points="594.27,-40.58 602.21,-33.56 591.63,-34.09 594.27,-40.58"/>
</g>
<!-- Red -->
<g id="node21" class="node">
<title>Red</title>
<ellipse fill="gray" stroke="black" cx="674" cy="-162" rx="27" ry="18"/>
<text text-anchor="middle" x="674" y="-159.8" font-family="Times,serif" font-size="9.00">Red</text>
</g>
<!-- RedLight&#45;&gt;Red -->
<g id="edge20" class="edge">
<title>RedLight&#45;&gt;Red</title>
<path fill="none" stroke="black" d="M754.82,-215.88C738.54,-205.22 717.63,-191.54 701.16,-180.77"/>
<polygon fill="black" stroke="black" points="702.81,-177.67 692.53,-175.12 698.98,-183.52 702.81,-177.67"/>
</g>
<!-- ComfortBrakingRed -->
<g id="node22" class="node">
<title>ComfortBrakingRed</title>
<ellipse fill="gray" stroke="black" cx="781" cy="-162" rx="62.21" ry="18"/>
<text text-anchor="middle" x="781" y="-159.8" font-family="Times,serif" font-size="9.00">ComfortBrakingRed</text>
</g>
<!-- RedLight&#45;&gt;ComfortBrakingRed -->
<g id="edge21" class="edge">
<title>RedLight&#45;&gt;ComfortBrakingRed</title>
<path fill="none" stroke="black" d="M781,-215.7C781,-207.98 781,-198.71 781,-190.11"/>
<polygon fill="black" stroke="black" points="784.5,-190.1 781,-180.1 777.5,-190.1 784.5,-190.1"/>
</g>
<!-- PublishRVIZMarkerRed -->
<g id="node23" class="node">
<title>PublishRVIZMarkerRed</title>
<ellipse fill="gray" stroke="black" cx="934" cy="-162" rx="72.99" ry="18"/>
<text text-anchor="middle" x="934" y="-159.8" font-family="Times,serif" font-size="9.00">PublishRVIZMarkerRed</text>
</g>
<!-- RedLight&#45;&gt;PublishRVIZMarkerRed -->
<g id="edge22" class="edge">
<title>RedLight&#45;&gt;PublishRVIZMarkerRed</title>
<path fill="none" stroke="black" d="M810.86,-219.34C833.94,-208.78 866.18,-194.03 891.89,-182.27"/>
<polygon fill="black" stroke="black" points="893.39,-185.43 901.03,-178.08 890.48,-179.06 893.39,-185.43"/>
</g>
<!-- Green -->
<g id="node25" class="node">
<title>Green</title>
<ellipse fill="gray" stroke="black" cx="1052" cy="-162" rx="27" ry="18"/>
<text text-anchor="middle" x="1052" y="-159.8" font-family="Times,serif" font-size="9.00">Green</text>
</g>
<!-- GreenLight&#45;&gt;Green -->
<g id="edge24" class="edge">
<title>GreenLight&#45;&gt;Green</title>
<path fill="none" stroke="black" d="M1094.91,-215.7C1087.67,-206.8 1078.74,-195.84 1070.91,-186.22"/>
<polygon fill="black" stroke="black" points="1073.41,-183.75 1064.38,-178.2 1067.98,-188.17 1073.41,-183.75"/>
</g>
<!-- ContinueDrivingGreen -->
<g id="node26" class="node">
<title>ContinueDrivingGreen</title>
<ellipse fill="gray" stroke="black" cx="1167" cy="-162" rx="70.37" ry="18"/>
<text text-anchor="middle" x="1167" y="-159.8" font-family="Times,serif" font-size="9.00">ContinueDrivingGreen</text>
</g>
<!-- GreenLight&#45;&gt;ContinueDrivingGreen -->
<g id="edge25" class="edge">
<title>GreenLight&#45;&gt;ContinueDrivingGreen</title>
<path fill="none" stroke="black" d="M1123.34,-215.7C1130.29,-207.3 1138.77,-197.07 1146.4,-187.86"/>
<polygon fill="black" stroke="black" points="1149.14,-190.04 1152.83,-180.1 1143.75,-185.57 1149.14,-190.04"/>
</g>
<!-- PublishRVIZMarkerGreen -->
<g id="node27" class="node">
<title>PublishRVIZMarkerGreen</title>
<ellipse fill="gray" stroke="black" cx="1335" cy="-162" rx="79.19" ry="18"/>
<text text-anchor="middle" x="1335" y="-159.8" font-family="Times,serif" font-size="9.00">PublishRVIZMarkerGreen</text>
</g>
<!-- GreenLight&#45;&gt;PublishRVIZMarkerGreen -->
<g id="edge26" class="edge">
<title>GreenLight&#45;&gt;PublishRVIZMarkerGreen</title>
<path fill="none" stroke="black" d="M1144.31,-222.06C1180.82,-210.75 1238.3,-192.95 1280.62,-179.84"/>
<polygon fill="black" stroke="black" points="1281.7,-183.17 1290.21,-176.87 1279.63,-176.49 1281.7,-183.17"/>
</g>
</g>
</svg>
